<?xml version="1.0" standalone="no"?> <!DOCTYPE svg PUBLIC "-//W3C//DTD SVG 1.0//EN" "http://www.w3.org/TR/2001/REC-SVG-20010904/DTD/svg10.dtd" > <svg xmlns="http://www.w3.org/2000/svg" width="100%" height="100%">
<defs >
<font id="trebuchetms" horiz-adv-x="929" ><font-face
    font-family="Trebuchet MS"
    units-per-em="2048"
    panose-1="2 11 6 3 2 2 2 2 2 4"
    ascent="1923"
    descent="-455"
    alphabetic="0" />
<missing-glyph horiz-adv-x="1024" d="M128 350V1118H896V350H128ZM256 478H768V990H256V478Z" />
<glyph unicode=" " glyph-name="space" horiz-adv-x="617" />
<glyph unicode="!" glyph-name="exclam" horiz-adv-x="752" d="M413 382H342Q265 885 265 1081V1491H491V1082Q491 891 413 382ZM384 281Q446 281 490 237T534 131Q534 69 490 25T384 -20Q322 -20 278 24T234 131Q234 193 278 237T384 281Z" />
<glyph unicode="&quot;" glyph-name="quotedbl" horiz-adv-x="665" d="M229 1086H96L72 1467H256L229 1086ZM559 1086H426L402 1467H586L559 1086Z" />
<glyph unicode="#" glyph-name="numbersign" horiz-adv-x="1074" d="M879 947L780 554H941V426H747L623 -20H496L620 426H323L199 -20H69L192 426H37V554H225L324 947H152V1075H357L459 1487H590L487 1075H784L887 1487H1014L911 1075H1086V947H879ZM455 947L356
554H653L752 947H455Z" />
<glyph unicode="$" glyph-name="dollar" horiz-adv-x="1074" d="M458 -25Q389 -21 284 10T140 67L212 251Q264 213 349 184T502 155Q619 155 690 219T761 382Q761 444 741 492T685 569T523 658L405 713Q255 783 196 879T136 1110Q136 1249 223 1352T458 1482V1642H597V1489Q812
1480 888 1411L829 1237Q789 1266 707 1293T555 1320Q453 1320 395 1262T336 1113Q336 1057 357 1011T417 933T569 847L661 804Q817 731 889 626T961 355Q961 219 865 117T597 -15V-246H458V-25Z" />
<glyph unicode="%" glyph-name="percent" horiz-adv-x="1229" d="M218 -20H91L974 1491H1100L218 -20ZM61 1162Q61 1309 142 1400T348 1491Q471 1491 544 1401T618 1143Q618 987 540 896T339 804Q61 804 61 1162ZM187 1152Q187 1035 226 971T330 906Q492 906 492
1151Q492 1389 345 1389Q272 1389 230 1325T187 1152ZM601 338Q601 485 682 576T888 667Q1011 667 1084 577T1158 319Q1158 163 1080 72T879 -20Q601 -20 601 338ZM727 328Q727 211 766 147T870 82Q1032 82 1032 327Q1032 565 885 565Q812 565 770 501T727 328Z"
/>
<glyph unicode="&amp;" glyph-name="ampersand" horiz-adv-x="1446" d="M929 51Q784 -20 579 -20Q370 -20 256 103T142 453Q142 569 176 654T303 830Q162 970 162 1121Q162 1274 277 1382T587 1491Q793 1491 905 1400L822 1246Q708 1341 618 1341Q352 1341 352
1101Q352 971 468 881H840V1064L1030 1137V878H1279V718H1030V388Q1030 250 1067 200T1195 150Q1249 150 1322 187L1349 10Q1244 -20 1109 -20Q1016 -20 929 51ZM840 314V718H437Q342 596 342 462Q342 150 647 150Q783 150 851 199Q840 245 840 314Z" />
<glyph unicode="&apos;" glyph-name="quotesingle" horiz-adv-x="327" d="M229 1086H96L72 1467H256L229 1086Z" />
<glyph unicode="(" glyph-name="parenleft" horiz-adv-x="752" d="M618 1475V1392Q420 1106 420 557Q420 -95 618 -323V-428Q416 -287 305 -24T193 559Q193 831 320 1108T618 1475Z" />
<glyph unicode=")" glyph-name="parenright" horiz-adv-x="752" d="M193 -428V-323Q391 -95 391 557Q391 1106 193 1392V1475Q364 1386 491 1109T618 559Q618 240 507 -23T193 -428Z" />
<glyph unicode="*" glyph-name="asterisk" horiz-adv-x="752" d="M597 1127L424 1124L582 1019L629 957L507 853L453 923L371 1082L280 920L237 856L106 957L156 1026L314 1109L138 1136L48 1168L120 1318L216 1281L341 1186L278 1391V1470H454V1394L394 1183L552
1290L626 1317L683 1156L597 1127Z" />
<glyph unicode="+" glyph-name="plus" horiz-adv-x="1074" d="M611 706H960V565H611V220H470V565H122V706H470V1049H611V706Z" />
<glyph unicode="," glyph-name="comma" horiz-adv-x="752" d="M224 -363L173 -291Q345 -150 345 -51Q345 -7 315 37Q229 78 229 155Q229 208 270 242T373 277Q428 277 471 229T515 117Q515 -16 460 -122T224 -363Z" />
<glyph unicode="-" glyph-name="hyphen" horiz-adv-x="752" d="M159 506V681H587V506H159Z" />
<glyph unicode="." glyph-name="period" horiz-adv-x="752" d="M354 281Q416 281 460 237T504 131Q504 69 460 25T354 -20Q292 -20 248 24T204 131Q204 193 248 237T354 281Z" />
<glyph unicode="/" glyph-name="slash" horiz-adv-x="1074" d="M350 0H189L720 1471H879L350 0Z" />
<glyph unicode="0" glyph-name="zero" horiz-adv-x="1074" d="M64 777Q64 1093 192 1292T552 1491Q782 1491 897 1325T1013 745Q1013 389 892 185T538 -20Q305 -20 185 145T64 777ZM264 759Q264 150 524 150Q673 150 743 285T813 758Q813 991 786 1100T699 1265T547
1321Q264 1321 264 759Z" />
<glyph unicode="1" glyph-name="one" horiz-adv-x="1074" d="M498 0V1123L200 937V1124Q313 1181 440 1281T638 1471H698V0H498Z" />
<glyph unicode="2" glyph-name="two" horiz-adv-x="1074" d="M69 0V40L528 743Q672 964 672 1118Q672 1321 443 1321Q362 1321 291 1279T188 1171L59 1277Q93 1375 192 1433T433 1491Q644 1491 763 1394T882 1118Q882 953 724 702L395 180H969V0H69Z" />
<glyph unicode="3" glyph-name="three" horiz-adv-x="1074" d="M109 104L205 258Q303 150 453 150Q731 150 731 422Q731 546 650 623T435 701H419V863H428Q682 863 682 1087Q682 1321 443 1321Q313 1321 236 1234L147 1370Q240 1491 458 1491Q650 1491 771 1389T892
1126Q892 1004 825 910T666 784Q792 743 866 645T941 406Q941 202 812 91T450 -20Q352 -20 258 16T109 104Z" />
<glyph unicode="4" glyph-name="four" horiz-adv-x="1074" d="M882 399V0H692V399H25V513L812 1471H882V553H1030V399H882ZM692 1072L262 553H692V1072Z" />
<glyph unicode="5" glyph-name="five" horiz-adv-x="1074" d="M232 715L164 762V1471H893V1301H354V945Q428 1000 542 1000Q746 1000 853 878T961 531Q961 -20 470 -20Q265 -20 130 94L207 261Q343 150 469 150Q751 150 751 502Q751 830 473 830Q339 830 232 715Z" />
<glyph unicode="6" glyph-name="six" horiz-adv-x="1074" d="M672 1491L769 1384Q681 1349 515 1148T330 837Q413 917 561 917Q755 917 872 793T989 452Q989 237 869 106T566 -25Q84 -25 84 614Q84 880 272 1158T672 1491ZM294 458Q294 145 551 145Q659 145 721
226T784 442Q784 581 718 664T548 747Q294 747 294 458Z" />
<glyph unicode="7" glyph-name="seven" horiz-adv-x="1074" d="M428 0H206Q280 235 455 621T775 1281H84V1471H1034V1393L905 1139Q840 1010 769 856T630 542T511 245T428 0Z" />
<glyph unicode="8" glyph-name="eight" horiz-adv-x="1074" d="M353 815Q260 865 201 954T142 1138Q142 1301 252 1396T538 1491Q727 1491 831 1396T935 1137Q935 1041 872 942T726 795Q990 647 990 406Q990 203 868 92T533 -20Q89 -20 89 406Q89 529 165 648T353
815ZM598 877Q734 1005 734 1142Q734 1224 680 1272T538 1321Q342 1321 342 1140Q342 1006 598 877ZM509 728Q289 609 289 406Q289 297 357 224T533 150Q645 150 717 222T790 406Q790 487 740 558T509 728Z" />
<glyph unicode="9" glyph-name="nine" horiz-adv-x="1074" d="M391 -25L294 82Q381 117 548 318T733 628Q651 549 502 549Q308 549 191 673T74 1014Q74 1229 194 1360T497 1491Q979 1491 979 852Q979 586 791 308T391 -25ZM769 1008Q769 1321 512 1321Q404 1321
342 1240T279 1024Q279 885 345 802T515 719Q769 719 769 1008Z" />
<glyph unicode=":" glyph-name="colon" horiz-adv-x="752" d="M354 1091Q416 1091 460 1047T504 941Q504 879 460 835T354 790Q292 790 248 834T204 941Q204 1003 248 1047T354 1091ZM354 281Q416 281 460 237T504 131Q504 69 460 25T354 -20Q292 -20 248 24T204
131Q204 193 248 237T354 281Z" />
<glyph unicode=";" glyph-name="semicolon" horiz-adv-x="752" d="M354 1091Q416 1091 460 1047T504 941Q504 879 460 835T354 790Q292 790 248 834T204 941Q204 1003 248 1047T354 1091ZM224 -363L173 -291Q345 -150 345 -51Q345 -7 315 37Q229 78 229 155Q229
208 270 242T373 277Q428 277 471 229T515 117Q515 -16 460 -122T224 -363Z" />
<glyph unicode="&lt;" glyph-name="less" horiz-adv-x="1074" d="M889 218L150 576V699L889 1053V892L318 637L889 379V218Z" />
<glyph unicode="=" glyph-name="equal" horiz-adv-x="1074" d="M960 876V735H122V876H960ZM960 536V395H122V536H960Z" />
<glyph unicode="&gt;" glyph-name="greater" horiz-adv-x="1074" d="M889 576L150 218V379L721 637L150 892V1053L889 699V576Z" />
<glyph unicode="?" glyph-name="question" horiz-adv-x="752" d="M366 429H234Q200 524 200 566Q200 638 226 713T346 892T472 1053T504 1162Q504 1338 291 1338Q189 1338 113 1265L40 1408Q141 1491 341 1491Q491 1491 590 1406T690 1179Q690 1107 665 1041T586
918L440 762Q352 654 352 520Q352 499 366 429ZM324 281Q386 281 430 237T474 131Q474 69 430 25T324 -20Q262 -20 218 24T174 131Q174 193 218 237T324 281Z" />
<glyph unicode="@" glyph-name="at" horiz-adv-x="1578" d="M1176 116Q1222 99 1311 58Q1119 -134 805 -134Q485 -134 293 63T100 581Q100 907 295 1116T805 1325Q1108 1325 1293 1144T1478 661Q1478 491 1389 373T1152 254Q993 254 922 324Q837 246 721 246Q614
246 548 304T482 462Q482 588 590 654T882 720Q867 867 764 867Q659 867 598 811L550 910Q632 971 750 971Q1028 971 1028 652V413Q1100 360 1150 360Q1336 360 1336 664Q1336 895 1186 1049T805 1203Q552 1203 397 1028T242 581Q242 314 395 151T805 -12Q1036
-12 1176 116ZM882 393V627H831Q636 627 636 467Q636 413 674 378T769 343Q832 343 882 393Z" />
<glyph unicode="A" glyph-name="A" horiz-adv-x="1208" d="M982 0L881 309H336L228 0H4L599 1485H652L1204 0H982ZM616 1101L389 456H824L616 1101Z" />
<glyph unicode="B" glyph-name="B" horiz-adv-x="1159" d="M568 0H150V1465Q417 1478 535 1478Q752 1478 871 1385T990 1117Q990 1015 914 931T746 826Q920 784 999 687T1079 423Q1079 230 938 115T568 0ZM350 1305V884Q413 878 506 878Q790 878 790 1109Q790
1312 529 1312Q429 1312 350 1305ZM350 729V170Q453 160 508 160Q696 160 782 230T869 455Q869 598 787 666T511 734L350 729Z" />
<glyph unicode="C" glyph-name="C" horiz-adv-x="1225" d="M1085 1411L1018 1240Q922 1310 716 1310Q523 1310 407 1144T290 716Q290 466 409 311T718 155Q924 155 1035 301L1145 148Q971 -25 697 -25Q410 -25 245 182T80 728Q80 1056 256 1273T711 1490Q950 1490
1085 1411Z" />
<glyph unicode="D" glyph-name="D" horiz-adv-x="1256" d="M445 0H150V1465Q432 1475 511 1475Q818 1475 997 1289T1176 792Q1176 0 445 0ZM350 1285V190Q417 180 516 180Q726 180 846 337T966 775Q966 1295 499 1295Q471 1295 350 1285Z" />
<glyph unicode="E" glyph-name="E" horiz-adv-x="1097" d="M350 1285V878H834V708H350V180H1014V0H150V1465H1025V1285H350Z" />
<glyph unicode="F" glyph-name="F" horiz-adv-x="1075" d="M350 1285V878H865V708H350V0H150V1465H1055V1285H350Z" />
<glyph unicode="G" glyph-name="G" horiz-adv-x="1385" d="M1165 1363L1082 1198Q931 1310 786 1310Q556 1310 423 1148T290 719Q290 465 420 310T776 155Q936 155 1035 251V594H832V764H1235V126Q1155 58 1012 17T734 -25Q431 -25 256 180T80 727Q80 1067 272
1278T792 1490Q1021 1490 1165 1363Z" />
<glyph unicode="H" glyph-name="H" horiz-adv-x="1340" d="M990 0V708H350V0H150V1465H350V878H990V1465H1190V0H990Z" />
<glyph unicode="I" glyph-name="I" horiz-adv-x="570" d="M185 0V1465H385V0H185Z" />
<glyph unicode="J" glyph-name="J" horiz-adv-x="976" d="M49 293H224Q248 160 383 160Q517 160 571 217T626 539V1465H826V547Q826 247 729 114T384 -20Q241 -20 150 65T49 293Z" />
<glyph unicode="K" glyph-name="K" horiz-adv-x="1179" d="M958 0L545 674L350 397V0H150V1465H350V668L894 1465H1117L679 830L1179 0H958Z" />
<glyph unicode="L" glyph-name="L" horiz-adv-x="1037" d="M150 0V1465H350V180H1012V0H150Z" />
<glyph unicode="M" glyph-name="M" horiz-adv-x="1453" d="M1253 0L1079 941L759 -20H709L380 941L210 0H20L294 1465H385L734 396L1056 1465H1146L1443 0H1253Z" />
<glyph unicode="N" glyph-name="N" horiz-adv-x="1307" d="M1097 -20L340 1051V0H150V1465H230L967 452V1465H1157V-20H1097Z" />
<glyph unicode="O" glyph-name="O" horiz-adv-x="1380" d="M80 745Q80 1063 239 1277T670 1491Q975 1491 1137 1294T1300 745Q1300 384 1137 180T670 -25Q393 -25 237 191T80 745ZM290 745Q290 493 389 324T670 155Q875 155 982 310T1090 745Q1090 1311 670 1311Q484
1311 387 1159T290 745Z" />
<glyph unicode="P" glyph-name="P" horiz-adv-x="1142" d="M350 564V0H150V1465Q377 1475 424 1475Q1062 1475 1062 1048Q1062 554 498 554Q464 554 350 564ZM350 1285V744Q477 734 484 734Q856 734 856 1027Q856 1295 459 1295Q419 1295 350 1285Z" />
<glyph unicode="Q" glyph-name="Q" horiz-adv-x="1384" d="M1520 -108L1490 -303Q966 -303 803 -12Q772 -25 670 -25Q393 -25 237 191T80 745Q80 1062 239 1276T670 1491Q975 1491 1137 1294T1300 745Q1300 240 998 52Q1107 -108 1364 -108H1520ZM670 1311Q484
1311 387 1159T290 745Q290 493 389 324T670 155Q876 155 983 311T1090 745Q1090 1311 670 1311Z" />
<glyph unicode="R" glyph-name="R" horiz-adv-x="1192" d="M963 0L572 629Q505 629 360 639V0H160V1465Q171 1465 315 1472T526 1480Q1054 1480 1054 1060Q1054 922 969 812T767 674L1192 0H963ZM360 1285V809Q432 799 500 799Q680 799 762 857T844 1064Q844 1187
756 1241T478 1295Q448 1295 360 1285Z" />
<glyph unicode="S" glyph-name="S" horiz-adv-x="985" d="M84 67L157 251Q213 210 296 183T446 155Q563 155 634 219T705 382Q705 456 666 519T467 658L349 713Q199 783 140 879T80 1110Q80 1274 196 1382T494 1490Q737 1490 832 1411L773 1237Q733 1266 651 1293T499
1320Q397 1320 339 1262T280 1113Q280 1057 301 1011T359 934T513 847L633 790Q783 719 843 621T904 370Q904 205 772 90T417 -25Q222 -25 84 67Z" />
<glyph unicode="T" glyph-name="T" horiz-adv-x="1189" d="M684 1285V0H484V1285H18V1465H1171V1285H684Z" />
<glyph unicode="U" glyph-name="U" horiz-adv-x="1328" d="M150 1465H350V462Q350 328 435 242T660 155Q808 155 893 239T978 467V1465H1178V446Q1178 224 1040 100T662 -25Q416 -25 283 97T150 447V1465Z" />
<glyph unicode="V" glyph-name="V" horiz-adv-x="1203" d="M660 -20H559L13 1465H235L612 386L975 1465H1190L660 -20Z" />
<glyph unicode="W" glyph-name="W" horiz-adv-x="1745" d="M1276 -20H1213L864 990L538 -20H475L13 1465H221L515 442L837 1465H907L1225 444L1524 1465H1732L1276 -20Z" />
<glyph unicode="X" glyph-name="X" horiz-adv-x="1140" d="M915 0L551 588L215 0H13L445 760L48 1466L245 1465L558 911L903 1465H1104L649 756L1127 0H915Z" />
<glyph unicode="Y" glyph-name="Y" horiz-adv-x="1168" d="M685 656V0H485V656L13 1465H219L584 825L949 1465H1155L685 656Z" />
<glyph unicode="Z" glyph-name="Z" horiz-adv-x="1127" d="M100 0V50L730 1285H110V1465H1005V1415L373 180H1027V0H100Z" />
<glyph unicode="[" glyph-name="bracketleft" horiz-adv-x="752" d="M202 -420V1510H665V1340H402V-250H665V-420H202Z" />
<glyph unicode="\" glyph-name="backslash" horiz-adv-x="728" d="M512 0L-3 1471H139L655 0H512Z" />
<glyph unicode="]" glyph-name="bracketright" horiz-adv-x="752" d="M550 -420H87V-250H350V1340H87V1510H550V-420Z" />
<glyph unicode="^" glyph-name="asciicircum" horiz-adv-x="1074" d="M763 907L519 1355L271 903H149L467 1471H574L890 907H763Z" />
<glyph unicode="_" glyph-name="underscore" horiz-adv-x="1074" d="M-8 -254V-125H1077V-254H-8Z" />
<glyph unicode="`" glyph-name="grave" horiz-adv-x="1074" d="M559 1285L333 1618H530L699 1285H559Z" />
<glyph unicode="a" glyph-name="a" horiz-adv-x="1076" d="M740 123Q626 -20 391 -20Q265 -20 173 71T80 299Q80 462 222 574T586 687Q646 687 722 661Q722 921 490 921Q312 921 216 825L136 984Q190 1028 285 1059T468 1091Q701 1091 806 985T912 648V264Q912
123 996 76V-19Q880 -19 823 14T740 123ZM722 526Q632 546 596 546Q452 546 361 472T270 297Q270 130 467 130Q611 130 722 267V526Z" />
<glyph unicode="b" glyph-name="b" horiz-adv-x="1141" d="M297 77L230 -20H135V1510H325V992Q352 1029 426 1060T573 1091Q793 1091 929 939T1066 555Q1066 287 929 134T558 -20Q482 -20 409 8T297 77ZM325 847V229Q325 213 396 177T504 140Q698 140 782 233T866
545Q866 727 768 829T504 931Q469 931 407 901T325 847Z" />
<glyph unicode="c" glyph-name="c" horiz-adv-x="1014" d="M943 984L849 850Q820 879 747 905T602 931Q447 931 356 823T265 525Q265 337 358 239T616 140Q744 140 874 239L949 79Q796 -20 570 -20Q351 -20 208 127T65 525Q65 781 213 936T620 1091Q703 1091 800
1056T943 984Z" />
<glyph unicode="d" glyph-name="d" horiz-adv-x="1141" d="M814 1V80Q715 -19 526 -19Q325 -19 200 125T75 509Q75 750 219 920T562 1091Q728 1091 814 1013V1510H1004V1H814ZM814 823Q742 931 617 931Q464 931 370 817T275 527Q275 140 627 140Q672 140 735 168T814
229V823Z" />
<glyph unicode="e" glyph-name="e" horiz-adv-x="1117" d="M1037 517H265Q265 329 368 228Q459 140 602 140Q765 140 874 235L954 98Q910 54 819 22Q705 -20 565 -20Q363 -20 222 117Q65 268 65 523Q65 788 226 948Q370 1091 567 1091Q796 1091 926 962Q1052 838
1052 633Q1052 570 1037 517ZM576 931Q449 931 363 849Q281 771 270 655H863Q863 770 791 847Q712 931 576 931Z" />
<glyph unicode="f" glyph-name="f" horiz-adv-x="757" d="M714 1340Q656 1360 606 1360Q519 1360 463 1294T406 1127Q406 1100 411 1071H629V911H411V0H221V911H65V1071H221Q221 1276 322 1393T589 1510Q672 1510 767 1480L714 1340Z" />
<glyph unicode="g" glyph-name="g" horiz-adv-x="1028" d="M96 -293L199 -141Q365 -252 505 -252Q634 -252 708 -208T783 -97Q783 33 595 33Q563 33 479 17T348 1Q120 1 120 173Q120 226 173 269T306 331Q80 437 80 699Q80 867 197 979T486 1091Q644 1091 733
1026L828 1140L952 1023L838 937Q911 842 911 689Q911 527 810 417T545 291L388 275Q360 272 313 254T266 205Q266 164 364 164Q407 164 498 179T633 195Q791 195 879 120T968 -90Q968 -238 836 -329T500 -420Q396 -420 281 -383T96 -293ZM499 938Q400 938 338
868T275 698Q275 586 335 513T499 439Q600 439 657 510T714 698Q714 798 653 868T499 938Z" />
<glyph unicode="h" glyph-name="h" horiz-adv-x="1119" d="M795 0V673Q795 793 736 862T570 931Q501 931 432 891T325 796V0H135V1510H325V953Q363 1012 447 1051T622 1091Q792 1091 888 979T985 673V0H795Z" />
<glyph unicode="i" glyph-name="i" horiz-adv-x="584" d="M331 1476Q380 1476 414 1442T449 1359Q449 1310 415 1276T331 1241Q283 1241 249 1275T214 1359Q214 1408 248 1442T331 1476ZM227 0V911H80V1071H417V0H227Z" />
<glyph unicode="j" glyph-name="j" horiz-adv-x="751" d="M428 1476Q477 1476 511 1442T546 1359Q546 1310 512 1276T428 1241Q379 1241 345 1275T311 1359Q311 1408 345 1442T428 1476ZM18 -420V-250Q214 -250 286 -191T359 5V911H146V1071H549V9Q549 -212 419
-316T18 -420Z" />
<glyph unicode="k" glyph-name="k" horiz-adv-x="1033" d="M827 0L491 536L325 365V0H135V1510H325V573L735 1071H957L614 664L1033 0H827Z" />
<glyph unicode="l" glyph-name="l" horiz-adv-x="604" d="M150 303V1510H340V335Q340 249 389 200T519 150V-20Q150 -20 150 303Z" />
<glyph unicode="m" glyph-name="m" horiz-adv-x="1700" d="M1375 0V678Q1375 931 1156 931Q1087 931 1027 889T945 792V0H755V761Q755 840 696 885T538 931Q481 931 417 887T325 790V0H135V1071H259L322 947Q432 1091 597 1091Q827 1091 919 948Q951 1009 1038
1050T1217 1091Q1383 1091 1474 993T1565 716V0H1375Z" />
<glyph unicode="n" glyph-name="n" horiz-adv-x="1119" d="M794 0V623Q794 794 743 862T570 931Q505 931 434 892T325 796V0H135V1071H265L325 933Q419 1091 632 1091Q984 1091 984 663V0H794Z" />
<glyph unicode="o" glyph-name="o" horiz-adv-x="1099" d="M65 538Q65 786 198 938T550 1091Q780 1091 907 945T1034 538Q1034 279 904 130T550 -20Q321 -20 193 131T65 538ZM265 538Q265 135 550 135Q683 135 758 243T834 538Q834 936 550 936Q420 936 343 830T265 538Z" />
<glyph unicode="p" glyph-name="p" horiz-adv-x="1141" d="M325 59V-420H135V1071H325V983Q433 1091 586 1091Q814 1091 941 949T1068 533Q1068 289 940 135T570 -20Q502 -20 425 4T325 59ZM325 840V216Q343 189 401 165T514 140Q868 140 868 540Q868 743 784
837T515 931Q475 931 417 903T325 840Z" />
<glyph unicode="q" glyph-name="q" horiz-adv-x="1141" d="M821 -420V63Q738 -20 543 -20Q324 -20 200 126T75 533Q75 790 217 940T584 1091Q724 1091 845 990L896 1071H1011V-420H821ZM821 849Q739 931 616 931Q455 931 365 822T275 533Q275 347 365 244T608
140Q745 140 821 210V849Z" />
<glyph unicode="r" glyph-name="r" horiz-adv-x="796" d="M717 888Q655 931 592 931Q491 931 416 838T340 614V0H150V1071H340V900Q444 1091 649 1091Q700 1091 796 1073L717 888Z" />
<glyph unicode="s" glyph-name="s" horiz-adv-x="829" d="M65 64L132 244Q291 140 388 140Q564 140 564 288Q564 394 394 470Q263 530 218 561T139 631T89 715T72 811Q72 943 168 1017T419 1091Q536 1091 714 1017L660 841Q547 931 433 931Q365 931 319 899T272
818Q272 715 389 662L525 600Q650 543 707 470T764 287Q764 143 663 62T383 -20Q214 -20 65 64Z" />
<glyph unicode="t" glyph-name="t" horiz-adv-x="812" d="M203 921H79V1071H203V1295L393 1368V1071H687V921H393V389Q393 254 438 197T585 140Q658 140 736 177L764 10Q646 -20 505 -20Q378 -20 291 74T203 313V921Z" />
<glyph unicode="u" glyph-name="u" horiz-adv-x="1119" d="M315 1071V388Q315 140 530 140Q624 140 702 194T805 319V1071H995V0H805V148Q773 85 677 33T488 -20Q312 -20 219 81T125 368V1071H315Z" />
<glyph unicode="v" glyph-name="v" horiz-adv-x="1003" d="M521 -20H471L12 1074H220L503 324L792 1074H991L521 -20Z" />
<glyph unicode="w" glyph-name="w" horiz-adv-x="1524" d="M1125 -20H1075L761 709L448 -20H398L15 1074H218L447 371L732 1074H782L1076 371L1322 1074H1509L1125 -20Z" />
<glyph unicode="x" glyph-name="x" horiz-adv-x="1026" d="M787 0L495 390L234 0H12L401 548L44 1071H258L498 703L767 1071H977L588 548L1014 0H787Z" />
<glyph unicode="y" glyph-name="y" horiz-adv-x="1010" d="M544 -182Q507 -284 389 -352T124 -420V-250Q243 -250 328 -195T413 -59Q413 29 382 114T302 326L12 1071H206L521 243L804 1071H998L544 -182Z" />
<glyph unicode="z" glyph-name="z" horiz-adv-x="972" d="M338 170H932V0H40V50L649 901H50V1071H926V1017L338 170Z" />
<glyph unicode="{" glyph-name="braceleft" horiz-adv-x="752" d="M568 -420Q397 -420 285 -338T173 -122Q173 -52 210 92T247 311Q247 509 38 523V607Q137 615 192 676T247 836Q247 904 210 1029T173 1216Q173 1344 284 1423T559 1502H707V1369H532Q368 1369
368 1185Q368 1120 399 1018T431 855Q431 697 206 567Q311 524 371 455T431 317Q431 252 400 137T368 -52Q368 -280 631 -280H707V-420H568Z" />
<glyph unicode="|" glyph-name="bar" horiz-adv-x="1074" d="M462 -276V1405H608V-276H462Z" />
<glyph unicode="}" glyph-name="braceright" horiz-adv-x="752" d="M38 -420V-280H114Q377 -280 377 -52Q377 22 346 137T314 317Q314 386 374 455T539 567Q314 697 314 855Q314 916 345 1018T377 1185Q377 1369 213 1369H38V1502H186Q349 1502 460 1423T572 1216Q572
1155 535 1030T498 836Q498 738 553 677T707 607V523Q498 509 498 311Q498 237 535 95T572 -122Q572 -256 460 -338T177 -420H38Z" />
<glyph unicode="~" glyph-name="asciitilde" horiz-adv-x="1074" d="M904 716Q851 509 712 509Q633 509 509 547T357 586Q286 586 249 509H158Q172 593 222 654T342 716Q429 716 544 678T708 639Q789 639 816 716H904Z" />
</font>
</defs>
</svg>
