<?xml version="1.0" standalone="no"?> <!DOCTYPE svg PUBLIC "-//W3C//DTD SVG 1.0//EN" "http://www.w3.org/TR/2001/REC-SVG-20010904/DTD/svg10.dtd" > <svg xmlns="http://www.w3.org/2000/svg" width="100%" height="100%">
<defs >
<font id="trebuchetmsbold" horiz-adv-x="970" ><font-face
    font-family="Trebuchet MS"
    units-per-em="2048"
    panose-1="2 11 7 3 2 2 2 2 2 4"
    ascent="1923"
    descent="-455"
    alphabetic="0" />
<missing-glyph horiz-adv-x="1024" d="M128 350V1118H896V350H128ZM256 478H768V990H256V478Z" />
<glyph unicode=" " glyph-name="space" horiz-adv-x="617" />
<glyph unicode="!" glyph-name="exclam" horiz-adv-x="752" d="M426 382H322Q244 882 244 1081V1491H504V1082Q504 882 426 382ZM382 308Q450 308 497 260T545 144Q545 76 498 28T382 -20Q314 -20 266 28T218 144Q218 212 266 260T382 308Z" />
<glyph unicode="&quot;" glyph-name="quotedbl" horiz-adv-x="751" d="M667 1036H478L450 1467H698L667 1036ZM287 1036H98L70 1467H318L287 1036Z" />
<glyph unicode="#" glyph-name="numbersign" horiz-adv-x="1200" d="M1174 910H959L875 590H1029V409H827L707 -20H512L630 409H400L282 -20H87L205 409H65V590H254L337 910H180V1091H385L493 1487H686L581 1091H810L918 1487H1111L1007 1091H1174V910ZM769 910H532L448
590H683L769 910Z" />
<glyph unicode="$" glyph-name="dollar" horiz-adv-x="1200" d="M473 -23Q299 -11 155 81L251 314Q405 206 554 206Q783 206 783 364Q783 443 725 512T503 664T280 800T190 929T158 1096Q158 1232 243 1336T473 1475V1656H702L701 1485Q885 1467 975 1395L896
1171Q759 1269 607 1269Q517 1269 468 1221T418 1098Q418 972 697 836Q844 764 909 704T1008 563T1042 383Q1042 243 952 139T702 -5V-235H473V-23Z" />
<glyph unicode="%" glyph-name="percent" horiz-adv-x="1401" d="M31 1146Q31 1298 120 1394T348 1491Q485 1491 566 1395T648 1127Q648 967 562 870T339 773Q31 773 31 1146ZM217 1136Q217 1036 249 982T330 928Q462 928 462 1135Q462 1335 345 1335Q217 1335
217 1136ZM335 -20H139L1057 1491H1252L335 -20ZM731 353Q731 505 820 601T1048 698Q1185 698 1266 602T1348 335Q1348 175 1262 78T1039 -20Q731 -20 731 353ZM917 344Q917 244 948 190T1030 136Q1162 136 1162 343Q1162 543 1045 543Q917 543 917 344Z" />
<glyph unicode="&amp;" glyph-name="ampersand" horiz-adv-x="1446" d="M925 44Q775 -20 579 -20Q355 -20 234 109T112 464Q112 676 261 826Q132 957 132 1106Q132 1265 256 1378T587 1491Q803 1491 943 1382L837 1200Q712 1289 618 1289Q505 1289 444 1235T382
1087Q382 980 478 904H810V1071L1060 1164V901H1309V690H1060V401Q1060 286 1091 244T1195 201Q1264 201 1333 232V13Q1229 -20 1109 -20Q1013 -20 925 44ZM810 330V690H452Q372 593 372 472Q372 201 647 201Q756 201 817 233Q810 270 810 330Z" />
<glyph unicode="&apos;" glyph-name="quotesingle" horiz-adv-x="470" d="M337 1036H148L120 1467H368L337 1036Z" />
<glyph unicode="(" glyph-name="parenleft" horiz-adv-x="752" d="M648 1494V1356Q450 1079 450 556Q450 -66 648 -286V-455Q412 -295 288 -31T163 558Q163 836 303 1113T648 1494Z" />
<glyph unicode=")" glyph-name="parenright" horiz-adv-x="752" d="M163 -455V-286Q361 -66 361 556Q361 1079 163 1356V1494Q368 1391 508 1114T648 558Q648 233 524 -31T163 -455Z" />
<glyph unicode="*" glyph-name="asterisk" horiz-adv-x="885" d="M671 1102L537 1091L674 1013L760 902L567 758L483 880L430 1008L381 894L270 758L98 912L216 1027L326 1084L191 1096L35 1158L133 1363L291 1296L362 1220L308 1375V1511L544 1510V1379L498 1217L598
1306L740 1368L821 1167L671 1102Z" />
<glyph unicode="+" glyph-name="plus" horiz-adv-x="1200" d="M713 535V180H512V535H164V736H512V1079H713V736H1062V535H713Z" />
<glyph unicode="," glyph-name="comma" horiz-adv-x="752" d="M217 -374L132 -265Q315 -128 315 -50Q315 -20 294 9Q199 55 199 138Q199 198 249 237T373 277Q442 277 493 225T545 103Q545 -24 486 -128T217 -374Z" />
<glyph unicode="-" glyph-name="hyphen" horiz-adv-x="752" d="M109 476V711H638V476H109Z" />
<glyph unicode="." glyph-name="period" horiz-adv-x="752" d="M174 131Q174 206 226 258T354 311Q429 311 481 259T534 131Q534 56 482 3T354 -50Q279 -50 227 3T174 131Z" />
<glyph unicode="/" glyph-name="slash" horiz-adv-x="799" d="M241 0H16L569 1471H792L241 0Z" />
<glyph unicode="0" glyph-name="zero" horiz-adv-x="1200" d="M75 777Q75 1077 221 1284T613 1491Q1124 1491 1124 745Q1124 396 986 188T599 -20Q331 -20 203 172T75 777ZM345 759Q345 466 402 328T591 190Q734 190 794 314T854 758Q854 1055 797 1168T608 1281Q345
1281 345 759Z" />
<glyph unicode="1" glyph-name="one" horiz-adv-x="1200" d="M569 0V1056L271 877V1127Q558 1266 725 1471H829V0H569Z" />
<glyph unicode="2" glyph-name="two" horiz-adv-x="1200" d="M155 0V76L619 759Q758 964 758 1104Q758 1270 559 1270Q407 1270 314 1109L139 1247Q191 1352 302 1421T549 1491Q774 1491 901 1389T1028 1104Q1028 937 865 688L565 231H1115V0H155Z" />
<glyph unicode="3" glyph-name="three" horiz-adv-x="1200" d="M143 123L273 324Q389 201 525 201Q773 201 773 434Q773 540 701 606T507 673H461V887H500Q724 887 724 1074Q724 1270 515 1270Q407 1270 305 1168L183 1347Q230 1405 330 1448T530 1491Q749 1491
871 1391T994 1111Q994 897 810 785Q1043 673 1043 419Q1043 210 905 95T522 -20Q300 -20 143 123Z" />
<glyph unicode="4" glyph-name="four" horiz-adv-x="1200" d="M984 383V0H734V383H67V532L870 1471H984V589H1132V383H984ZM734 1029L358 589H734V1029Z" />
<glyph unicode="5" glyph-name="five" horiz-adv-x="1200" d="M165 111L268 325Q427 201 541 201Q793 201 793 511Q793 660 736 728T545 797Q424 797 309 678L206 745V1471H995V1250H456V988Q522 1018 614 1018Q830 1018 946 893T1063 539Q1063 -20 542 -20Q326
-20 165 111Z" />
<glyph unicode="6" glyph-name="six" horiz-adv-x="1200" d="M760 1494L898 1348Q749 1270 627 1143T459 892Q563 939 639 939Q846 939 971 811T1097 463Q1097 247 969 114T644 -20Q132 -20 132 619Q132 887 329 1161T760 1494ZM402 468Q402 201 629 201Q722 201
777 267T832 453Q832 575 775 646T626 718Q402 718 402 468Z" />
<glyph unicode="7" glyph-name="seven" horiz-adv-x="1200" d="M537 0H252Q415 502 812 1231H141V1471H1151V1360L1019 1111Q954 985 882 836T742 532T622 243T537 0Z" />
<glyph unicode="8" glyph-name="eight" horiz-adv-x="1200" d="M352 802Q272 856 221 945T170 1123Q170 1292 289 1391T596 1491Q797 1491 910 1392T1023 1122Q1023 1033 960 934T822 794Q917 750 997 635T1078 419Q1078 211 947 96T591 -20Q364 -20 241 93T117
419Q117 529 182 635T352 802ZM620 902Q676 928 719 998T762 1126Q762 1192 717 1231T596 1270Q430 1270 430 1125Q430 1061 491 995T620 902ZM568 697Q377 589 377 419Q377 325 436 263T591 201Q691 201 754 255T818 399Q818 551 568 697Z" />
<glyph unicode="9" glyph-name="nine" horiz-adv-x="1200" d="M453 -28L315 118Q619 286 745 557Q678 527 574 527Q368 527 242 655T116 1003Q116 1221 245 1356T569 1491Q1081 1491 1081 847Q1081 579 884 305T453 -28ZM381 1013Q381 890 439 819T587 748Q811
748 811 998Q811 1270 584 1270Q491 1270 436 1202T381 1013Z" />
<glyph unicode=":" glyph-name="colon" horiz-adv-x="752" d="M174 941Q174 1016 226 1068T354 1121Q429 1121 481 1069T534 941Q534 866 482 813T354 760Q279 760 227 813T174 941ZM174 131Q174 206 226 258T354 311Q429 311 481 259T534 131Q534 56 482 3T354
-50Q279 -50 227 3T174 131Z" />
<glyph unicode=";" glyph-name="semicolon" horiz-adv-x="752" d="M174 941Q174 1016 226 1068T354 1121Q429 1121 481 1069T534 941Q534 866 482 813T354 760Q279 760 227 813T174 941ZM217 -374L132 -265Q315 -128 315 -50Q315 -20 294 9Q199 55 199 138Q199
198 249 237T373 277Q442 277 493 225T545 103Q545 -24 486 -128T217 -374Z" />
<glyph unicode="&lt;" glyph-name="less" horiz-adv-x="1200" d="M192 557V718L991 1101V873L463 637L991 398V170L192 557Z" />
<glyph unicode="=" glyph-name="equal" horiz-adv-x="1200" d="M179 745V946H1077V745H179ZM179 325V526H1077V325H179Z" />
<glyph unicode="&gt;" glyph-name="greater" horiz-adv-x="1200" d="M265 170V398L792 637L265 873V1101L1064 718V557L265 170Z" />
<glyph unicode="?" glyph-name="question" horiz-adv-x="897" d="M497 444H306Q304 451 288 495T271 572Q271 635 288 693T340 801T474 963T575 1146Q575 1286 392 1286Q303 1286 206 1197L103 1390Q232 1491 442 1491Q604 1491 712 1401T821 1162Q821 1060 782
990T643 824T513 666T483 528Q483 512 497 444ZM412 308Q480 308 527 260T575 144Q575 76 528 28T412 -20Q344 -20 296 28T248 144Q248 212 296 260T412 308Z" />
<glyph unicode="@" glyph-name="at" horiz-adv-x="1578" d="M922 297Q836 231 721 231Q604 231 528 294T452 467Q452 719 848 733Q829 827 764 827Q670 827 571 770L512 906Q622 985 750 985Q1058 985 1058 650V435Q1115 398 1150 398Q1306 398 1306 661Q1306
889 1174 1019T805 1150Q565 1150 419 991T272 582Q272 337 416 189T805 41Q934 41 1013 70T1171 170Q1172 169 1172 143Q1172 116 1171 65V-36Q999 -134 805 -134Q472 -134 271 64T70 582Q70 907 273 1116T805 1325Q1142 1325 1325 1151T1508 658Q1508 484 1411
362T1152 239Q1004 239 922 297ZM852 597H831Q666 597 666 472Q666 433 695 408T769 382Q817 382 852 413V597Z" />
<glyph unicode="A" glyph-name="A" horiz-adv-x="1297" d="M1005 0L898 297H396L294 0H5L589 1485H703L1292 0H1005ZM646 1037L470 496H822L646 1037Z" />
<glyph unicode="B" glyph-name="B" horiz-adv-x="1219" d="M598 0H150V1464Q446 1478 565 1478Q793 1478 921 1381T1050 1102Q1050 928 866 827Q1139 732 1139 435Q1139 235 988 118T598 0ZM410 1256V905Q470 901 536 901Q790 901 790 1092Q790 1261 559 1261Q498
1261 410 1256ZM410 702V218Q489 211 538 211Q712 211 790 270T869 466Q869 591 796 648T541 705Q503 705 410 702Z" />
<glyph unicode="C" glyph-name="C" horiz-adv-x="1253" d="M1154 1387L1047 1172Q960 1259 767 1259Q584 1259 467 1106T350 717Q350 482 458 344T748 206Q955 206 1072 354L1193 144Q1034 -25 727 -25Q420 -25 250 177T80 728Q80 1053 268 1271T751 1490Q1003
1490 1154 1387Z" />
<glyph unicode="D" glyph-name="D" horiz-adv-x="1316" d="M475 0H150V1464Q461 1475 541 1475Q861 1475 1048 1288T1236 790Q1236 0 475 0ZM410 1237V237Q473 231 546 231Q743 231 854 374T966 774Q966 1244 529 1244Q487 1244 410 1237Z" />
<glyph unicode="E" glyph-name="E" horiz-adv-x="1165" d="M410 1234V891H894V670H410V231H1074V0H150V1465H1085V1234H410Z" />
<glyph unicode="F" glyph-name="F" horiz-adv-x="1195" d="M410 1234V891H925V670H410V0H150V1465H1115V1234H410Z" />
<glyph unicode="G" glyph-name="G" horiz-adv-x="1375" d="M1232 1346L1123 1137Q1077 1178 981 1218T816 1259Q600 1259 475 1113T350 720Q350 486 472 346T806 206Q945 206 1035 282V570H832V792H1295V136Q1202 60 1056 18T764 -25Q449 -25 265 181T80 727Q80
1066 281 1278T822 1490Q1063 1490 1232 1346Z" />
<glyph unicode="H" glyph-name="H" horiz-adv-x="1400" d="M993 0V660H410V0H150V1465H410V891H993V1465H1250V0H993Z" />
<glyph unicode="I" glyph-name="I" horiz-adv-x="570" d="M155 0V1465H415V0H155Z" />
<glyph unicode="J" glyph-name="J" horiz-adv-x="1091" d="M17 339H249Q282 211 463 211Q591 211 643 294T696 546V1465H956V554Q956 262 832 121T434 -20Q252 -20 140 75T17 339Z" />
<glyph unicode="K" glyph-name="K" horiz-adv-x="1264" d="M981 0L573 624L410 401V0H150V1465H410V764L908 1465H1204L745 825L1292 0H981Z" />
<glyph unicode="L" glyph-name="L" horiz-adv-x="1132" d="M150 0V1465H410V231H1072V0H150Z" />
<glyph unicode="M" glyph-name="M" horiz-adv-x="1526" d="M1516 -1H1264L1112 789L817 -20H724L429 789L271 -1H20L315 1465H453L770 478L1080 1465H1217L1516 -1Z" />
<glyph unicode="N" glyph-name="N" horiz-adv-x="1367" d="M1111 -20L400 907V-1H150V1465H275L967 581V1465H1217V-20H1111Z" />
<glyph unicode="O" glyph-name="O" horiz-adv-x="1440" d="M80 745Q80 1058 251 1274T710 1491Q1026 1491 1193 1295T1360 745Q1360 391 1186 183T690 -25Q395 -25 238 181T80 745ZM350 745Q350 488 437 347T690 206Q885 206 987 344T1090 745Q1090 1260 710 1260Q536
1260 443 1121T350 745Z" />
<glyph unicode="P" glyph-name="P" horiz-adv-x="1202" d="M410 539V0H150V1464Q410 1475 454 1475Q801 1475 961 1369T1122 1036Q1122 532 528 532Q484 532 410 539ZM410 1239V770Q476 763 514 763Q692 763 774 822T856 1016Q856 1244 489 1244Q448 1244 410 1239Z" />
<glyph unicode="Q" glyph-name="Q" horiz-adv-x="1452" d="M1539 -303Q1473 -312 1405 -312Q1219 -312 1063 -237T819 -25Q782 -32 700 -32Q411 -32 246 184T80 740Q80 1062 249 1276T700 1491Q1017 1491 1188 1293T1360 740Q1360 215 1016 39Q1125 -81 1378 -81Q1471
-81 1539 -61V-303ZM350 740Q350 510 442 355T700 200Q892 200 991 342T1090 740Q1090 1259 700 1259Q528 1259 439 1120T350 740Z" />
<glyph unicode="R" glyph-name="R" horiz-adv-x="1251" d="M976 0L585 605Q526 606 420 612V0H150V1465Q172 1465 319 1472T556 1480Q1114 1480 1114 1048Q1114 918 1037 811T843 660L1276 0H976ZM420 1239V832Q492 826 530 826Q693 826 768 872T844 1051Q844
1159 763 1202T508 1245Q466 1245 420 1239Z" />
<glyph unicode="S" glyph-name="S" horiz-adv-x="1047" d="M80 81L176 314Q330 206 479 206Q708 206 708 366Q708 441 654 509T432 661T205 800T115 930T83 1096Q83 1266 207 1378T527 1490Q781 1490 900 1395L821 1171Q684 1269 532 1269Q442 1269 393 1222T343
1098Q343 972 622 836Q769 764 834 704T933 563T967 383Q967 205 827 90T450 -25Q245 -25 80 81Z" />
<glyph unicode="T" glyph-name="T" horiz-adv-x="1253" d="M746 1234V0H486V1234H20V1465H1233V1234H746Z" />
<glyph unicode="U" glyph-name="U" horiz-adv-x="1388" d="M150 1465H410V472Q410 354 482 280T680 206Q821 206 899 278T978 477V1465H1238V457Q1238 231 1087 103T682 -25Q427 -25 289 100T150 458V1465Z" />
<glyph unicode="V" glyph-name="V" horiz-adv-x="1273" d="M696 -20H553L5 1465H291L630 475L988 1465H1268L696 -20Z" />
<glyph unicode="W" glyph-name="W" horiz-adv-x="1810" d="M1331 -20H1224L904 904L593 -20H486L5 1465H276L551 581L848 1465H962L1260 581L1534 1465H1805L1331 -20Z" />
<glyph unicode="X" glyph-name="X" horiz-adv-x="1230" d="M942 0L596 527L276 0H5L444 759L40 1466L306 1465L603 970L930 1465H1202L738 755L1225 0H942Z" />
<glyph unicode="Y" glyph-name="Y" horiz-adv-x="1256" d="M759 601V0H499V601L5 1465H281L628 840L976 1465H1251L759 601Z" />
<glyph unicode="Z" glyph-name="Z" horiz-adv-x="1147" d="M80 0V84L691 1234H90V1465H1045V1381L432 231H1067V0H80Z" />
<glyph unicode="[" glyph-name="bracketleft" horiz-adv-x="823" d="M150 -420V1510H673V1287H410V-197H673V-420H150Z" />
<glyph unicode="\" glyph-name="backslash" horiz-adv-x="728" d="M528 0L-8 1471H198L735 0H528Z" />
<glyph unicode="]" glyph-name="bracketright" horiz-adv-x="823" d="M673 -420H150V-197H413V1287H150V1510H673V-420Z" />
<glyph unicode="^" glyph-name="asciicircum" horiz-adv-x="1200" d="M812 907L598 1265L380 903H188L546 1471H653L1009 907H812Z" />
<glyph unicode="_" glyph-name="underscore" horiz-adv-x="1200" d="M-8 -334V-125H1207V-334H-8Z" />
<glyph unicode="`" glyph-name="grave" horiz-adv-x="1200" d="M596 1215L370 1508H637L806 1215H596Z" />
<glyph unicode="a" glyph-name="a" horiz-adv-x="1091" d="M731 107Q697 51 613 16T436 -20Q263 -20 164 66T65 312Q65 498 204 603T601 708Q645 708 705 693Q705 882 466 882Q325 882 230 835L176 1029Q305 1091 483 1091Q728 1091 842 980T956 557V328Q956 114
1042 59Q1011 5 973 -7T886 -20Q832 -20 789 20T731 107ZM707 504Q643 517 611 517Q315 517 315 323Q315 179 482 179Q707 179 707 404V504Z" />
<glyph unicode="b" glyph-name="b" horiz-adv-x="1191" d="M312 59L256 -20H115V1470L365 1530V1030Q465 1091 583 1091Q818 1091 962 943T1106 562Q1106 293 961 137T568 -20Q419 -20 312 59ZM365 816V257Q420 192 514 192Q695 192 770 278T846 553Q846 879 534
879Q423 879 365 816Z" />
<glyph unicode="c" glyph-name="c" horiz-adv-x="1048" d="M975 986L868 799Q780 882 632 882Q490 882 408 788T325 526Q325 189 646 189Q785 189 891 281L983 84Q874 16 793 -2T600 -20Q352 -20 209 124T65 526Q65 779 222 935T650 1091Q837 1091 975 986Z" />
<glyph unicode="d" glyph-name="d" horiz-adv-x="1189" d="M824 0V65Q793 31 719 6T566 -20Q342 -20 214 122T85 518Q85 772 232 931T602 1091Q724 1091 824 1041V1470L1074 1530V0H824ZM824 815Q744 879 657 879Q507 879 426 788T345 525Q345 191 667 191Q703
191 755 212T824 256V815Z" />
<glyph unicode="e" glyph-name="e" horiz-adv-x="1177" d="M1091 459H326Q333 331 414 260T632 189Q803 189 892 278L989 87Q857 -20 595 -20Q350 -20 208 123T65 524Q65 777 221 934T597 1091Q830 1091 971 952T1112 598Q1112 552 1091 459ZM335 647H861Q835
882 601 882Q387 882 335 647Z" />
<glyph unicode="f" glyph-name="f" horiz-adv-x="757" d="M732 1281Q650 1308 606 1308Q535 1308 486 1247T436 1097Q436 1084 437 1071H659V865H441V0H191V865H35V1071H192Q200 1268 308 1389T589 1510Q678 1510 806 1471L732 1281Z" />
<glyph unicode="g" glyph-name="g" horiz-adv-x="1028" d="M55 -275L213 -80Q344 -200 505 -200Q613 -200 683 -168T753 -80Q753 15 598 15Q556 15 473 5T348 -5Q90 -5 90 180Q90 233 133 284T233 359Q50 478 50 696Q50 868 176 980T486 1093Q630 1093 727 1039L825
1153L998 996L879 909Q941 815 941 687Q941 504 830 395T548 285Q521 285 476 290L435 296Q428 296 382 275T335 230Q335 190 404 190Q435 190 508 205T633 220Q998 220 998 -73Q998 -235 852 -327T500 -420Q254 -420 55 -275ZM305 695Q305 600 357 543T499 485Q588
485 636 541T684 695Q684 776 633 832T499 888Q413 888 359 834T305 695Z" />
<glyph unicode="h" glyph-name="h" horiz-adv-x="1214" d="M828 0V660Q828 759 766 819T604 879Q542 879 479 846T389 769V0H135V1470L389 1530V1003Q486 1091 656 1091Q857 1091 968 980T1079 660V0H828Z" />
<glyph unicode="i" glyph-name="i" horiz-adv-x="611" d="M331 1486Q391 1486 433 1444T476 1341Q476 1281 434 1239T331 1196Q271 1196 229 1238T186 1341Q186 1401 228 1443T331 1486ZM202 0V866H65V1071H455V0H202Z" />
<glyph unicode="j" glyph-name="j" horiz-adv-x="751" d="M446 1486Q506 1486 548 1444T591 1341Q591 1281 549 1239T446 1196Q386 1196 344 1238T301 1341Q301 1401 343 1443T446 1486ZM-12 -420V-197Q188 -197 258 -150T329 21V865H136V1071H579V25Q579 -205
435 -312T-12 -420Z" />
<glyph unicode="k" glyph-name="k" horiz-adv-x="1122" d="M820 0L505 485L385 358V0H135V1470L385 1530V660L742 1071H1043L681 665L1117 0H820Z" />
<glyph unicode="l" glyph-name="l" horiz-adv-x="604" d="M178 1470L428 1530V326Q428 128 546 90Q488 -20 348 -20Q178 -20 178 216V1470Z" />
<glyph unicode="m" glyph-name="m" horiz-adv-x="1760" d="M1375 0V671Q1375 882 1186 882Q1130 882 1078 849T1005 773V0H755V710Q755 789 706 835T568 882Q521 882 466 847T385 770V0H135V1071H307L358 977Q462 1091 627 1091Q840 1091 948 975Q995 1028 1079
1059T1247 1091Q1426 1091 1525 989T1625 707V0H1375Z" />
<glyph unicode="n" glyph-name="n" horiz-adv-x="1209" d="M824 0V619Q824 756 772 819T600 882Q545 882 483 851T385 774V0H135V1071H315L361 971Q463 1091 662 1091Q853 1091 963 977T1074 657V0H824Z" />
<glyph unicode="o" glyph-name="o" horiz-adv-x="1159" d="M65 538Q65 783 206 937T580 1091Q824 1091 959 943T1094 538Q1094 282 957 131T580 -20Q336 -20 201 132T65 538ZM325 538Q325 184 580 184Q697 184 765 276T834 538Q834 887 580 887Q463 887 394 795T325 538Z" />
<glyph unicode="p" glyph-name="p" horiz-adv-x="1193" d="M365 27V-420H115V1071H365V999Q459 1091 596 1091Q1108 1091 1108 527Q1108 264 967 122T580 -20Q462 -20 365 27ZM365 809V246Q433 191 524 191Q697 191 772 273T848 534Q848 724 773 801T525 879Q435
879 365 809Z" />
<glyph unicode="q" glyph-name="q" horiz-adv-x="1196" d="M831 -420V30Q741 -20 583 -20Q349 -20 217 122T85 525Q85 784 236 937T624 1091Q764 1091 878 1007L919 1071H1081V-420H831ZM831 817Q764 879 656 879Q510 879 428 783T345 525Q345 191 648 191Q759
191 831 243V817Z" />
<glyph unicode="r" glyph-name="r" horiz-adv-x="875" d="M754 838Q687 882 607 882Q520 882 453 803T385 610V0H135V1071H385V973Q490 1091 664 1091Q792 1091 860 1052L754 838Z" />
<glyph unicode="s" glyph-name="s" horiz-adv-x="882" d="M69 69L158 268Q270 179 411 179Q557 179 557 283Q557 344 513 383T342 475Q65 590 65 797Q65 936 171 1013T442 1091Q609 1091 756 1016L684 822Q602 892 456 892Q325 892 325 788Q325 747 368 714T552
626T755 491T817 300Q817 151 707 66T406 -20Q299 -20 235 -3T69 69Z" />
<glyph unicode="t" glyph-name="t" horiz-adv-x="812" d="M173 870H49V1071H173V1289L423 1381V1071H717V870H423V401Q423 286 459 239T585 191Q675 191 753 240V10Q666 -20 505 -20Q345 -20 259 70T173 328V870Z" />
<glyph unicode="u" glyph-name="u" horiz-adv-x="1210" d="M825 -1V89Q772 44 679 12T508 -20Q135 -20 135 376V1071H385V395Q385 189 570 189Q655 189 728 233T825 335V1071H1075V-1H825Z" />
<glyph unicode="v" glyph-name="v" horiz-adv-x="1080" d="M579 -20H489L5 1071H279L535 417L810 1071H1075L579 -20Z" />
<glyph unicode="w" glyph-name="w" horiz-adv-x="1605" d="M1187 -20H1096L802 638L509 -20H417L13 1071H276L491 432L753 1071H843L1114 428L1346 1071H1592L1187 -20Z" />
<glyph unicode="x" glyph-name="x" horiz-adv-x="1131" d="M823 0L548 349L301 0H5L416 548L38 1071H325L551 744L803 1071H1088L677 548L1126 0H823Z" />
<glyph unicode="y" glyph-name="y" horiz-adv-x="1093" d="M609 -172Q569 -279 438 -349T131 -420V-199Q420 -199 420 -54Q420 42 340 240L5 1071H264L556 331L819 1071H1078L609 -172Z" />
<glyph unicode="z" glyph-name="z" horiz-adv-x="1082" d="M65 0V85L646 853H75V1071H1011V983L451 218H1017V0H65Z" />
<glyph unicode="{" glyph-name="braceleft" horiz-adv-x="888" d="M641 -420Q461 -420 339 -334T216 -102Q216 -30 253 110T290 322Q290 487 81 500V636Q290 651 290 831Q290 895 253 1017T216 1204Q216 1343 339 1426T632 1510H810V1323H605Q471 1323 471 1174Q471
1118 502 1012T534 849Q534 695 342 574Q534 474 534 328Q534 266 503 147T471 -34Q471 -104 500 -148T585 -209T810 -226V-420H641Z" />
<glyph unicode="|" glyph-name="bar" horiz-adv-x="1200" d="M505 -420V1510H711V-420H505Z" />
<glyph unicode="}" glyph-name="braceright" horiz-adv-x="888" d="M810 500Q601 487 601 322Q601 250 638 110T675 -102Q675 -248 553 -334T250 -420H81V-226Q250 -226 305 -210T390 -149T420 -34Q420 27 389 146T357 328Q357 474 549 574Q357 695 357 849Q357
905 388 1011T420 1174Q420 1323 286 1323H81V1510H259Q428 1510 551 1427T675 1204Q675 1140 638 1018T601 831Q601 651 810 636V500Z" />
<glyph unicode="~" glyph-name="asciitilde" horiz-adv-x="1200" d="M326 479H180Q201 599 258 672T400 746Q448 746 496 736T693 680Q734 669 766 669Q826 669 853 746H1001Q963 598 909 539T770 479Q723 479 674 489T530 527T415 556Q363 556 326 479Z" />
</font>
</defs>
</svg>
